<?xml version="1.0" encoding="utf-8"?>
<!-- Generator: Adobe Illustrator 20.1.0, SVG Export Plug-In . SVG Version: 6.00 Build 0)  -->
<svg version="1.1" id="Layer_1" xmlns="http://www.w3.org/2000/svg" xmlns:xlink="http://www.w3.org/1999/xlink" x="0px" y="0px"
	 viewBox="0 0 3235 1060.7" style="enable-background:new 0 0 3235 1060.7;" xml:space="preserve">
<style type="text/css">
	.st0{fill:#222222;}
	.st1{fill:#575757;}
	.st2{fill:#0A9EFC;}
</style>
<g id="SvgjsG1010" transform="translate(-16.849475807343396, -1.4651718093342083) scale(0.7325859046671042)" xmlns:name="symbol_mainfill">
	<g id="main_text" transform="translate(53.807224623176324, -5.60250396728518)" xmlns:name="mainText_mainfill">
		<path class="st0" d="M67.4,39.3c0.4,0.1,0.7,0.2,0.7,0.6c0,0.5-0.2,0.7-0.7,0.7h-0.2c-0.4,0-0.6-0.2-0.7-0.6c0,0,0,0,0,0h0.1
			c0,0,0.1,0,0.1,0c0,0.3,0.1,0.4,0.4,0.4h0.2c0.3,0,0.4-0.1,0.4-0.5c0-0.3-0.2-0.4-0.5-0.4l-0.1,0c-0.4-0.1-0.7-0.2-0.7-0.6
			c0-0.4,0.2-0.6,0.7-0.6h0.1c0.4,0,0.6,0.2,0.6,0.6c0,0,0,0.1-0.1,0.1h-0.1c0,0,0,0,0-0.1c0-0.3-0.1-0.4-0.4-0.4h-0.1
			c-0.3,0-0.4,0.1-0.4,0.4c0,0.3,0.2,0.3,0.4,0.4L67.4,39.3z M71,38.3C71,38.3,71,38.3,71,38.3l-0.5,2.3c0,0,0,0-0.1,0h-0.1
			c0,0-0.1,0-0.1,0l-0.6-1.9l-0.6,1.9c0,0,0,0-0.1,0h-0.1c0,0-0.1,0-0.1,0l-0.5-2.2c0,0,0,0,0,0h0.1c0,0,0.1,0,0.1,0l0.4,1.9
			l0.6-1.9c0,0,0,0,0.1,0h0.1c0,0,0.1,0,0.1,0l0.6,1.9l0.4-1.9c0,0,0,0,0.1,0H71L71,38.3z M71.2,38.4C71.2,38.3,71.3,38.3,71.2,38.4
			l0.2,0c0,0,0,0,0,0v2.2c0,0,0,0,0,0h-0.1c0,0,0,0,0,0V38.4L71.2,38.4z M73.1,38.3C73.1,38.3,73.1,38.3,73.1,38.3l0,0.2
			c0,0,0,0,0,0h-0.5v2.1c0,0,0,0,0,0h-0.1c0,0,0,0,0,0v-2.1h-0.6c0,0,0,0,0,0v-0.1c0,0,0,0,0,0h0.7H73.1L73.1,38.3z M74.8,39.9
			C74.9,39.9,74.9,39.9,74.8,39.9c0,0.5-0.2,0.7-0.6,0.7H74c-0.4,0-0.7-0.2-0.7-0.7v-1c0-0.5,0.2-0.7,0.7-0.7h0.2
			c0.4,0,0.6,0.2,0.7,0.7c0,0,0,0.1,0,0.1h-0.1c0,0,0,0-0.1-0.1c0-0.3-0.1-0.5-0.4-0.5H74c-0.3,0-0.4,0.1-0.4,0.5v1
			c0,0.3,0.1,0.5,0.4,0.5h0.2c0.3,0,0.4-0.1,0.4-0.5c0,0,0,0,0.1,0H74.8z M76.6,38.3C76.6,38.3,76.6,38.3,76.6,38.3l0,2.3
			c0,0,0,0,0,0h-0.1c0,0,0,0,0,0v-1h-1v1c0,0,0,0,0,0h-0.1c0,0,0,0,0,0v-2.2c0,0,0,0,0,0h0.1c0,0,0,0,0,0v1h1v-1c0,0,0,0,0,0H76.6
			L76.6,38.3z M79.3,38.3C79.3,38.3,79.3,38.3,79.3,38.3l0,2.3c0,0,0,0,0,0h-0.2c0,0,0,0-0.1,0l-1-2v2c0,0,0,0,0,0h-0.1c0,0,0,0,0,0
			v-2.2c0,0,0,0,0,0h0.2c0,0,0,0,0.1,0l1,2v-2c0,0,0,0,0,0H79.3L79.3,38.3z M82,39.9C82,39.9,82.1,39.9,82,39.9
			c0,0.5-0.2,0.7-0.6,0.7h-0.2c-0.4,0-0.7-0.2-0.7-0.7v-1c0-0.5,0.2-0.7,0.7-0.7h0.2c0.4,0,0.6,0.2,0.7,0.7c0,0,0,0.1,0,0.1h-0.1
			c0,0,0,0-0.1-0.1c0-0.3-0.1-0.5-0.4-0.5h-0.2c-0.3,0-0.4,0.1-0.4,0.5v1c0,0.3,0.1,0.5,0.4,0.5h0.2c0.3,0,0.4-0.1,0.4-0.5
			c0,0,0,0,0.1,0H82z M83.6,38.5h-1v0.9h0.8c0,0,0,0,0,0v0.1c0,0,0,0,0,0h-0.8v0.8h1.1c0,0,0,0,0,0v0.1c0,0,0,0,0,0h-1.2
			c0,0,0,0,0,0v-2.2c0,0,0,0,0,0h1.2c0,0,0,0,0,0L83.6,38.5C83.7,38.5,83.6,38.5,83.6,38.5L83.6,38.5z M85.1,40.4
			C85.1,40.4,85.1,40.4,85.1,40.4l0,0.2c0,0,0,0,0,0H84c0,0,0,0,0,0v-2.2c0,0,0,0,0,0h0.1c0,0,0,0,0,0v2.1L85.1,40.4L85.1,40.4z
			 M86.5,40.4C86.6,40.4,86.6,40.4,86.5,40.4l0,0.2c0,0,0,0,0,0h-1.1c0,0,0,0,0,0v-2.2c0,0,0,0,0,0h0.1c0,0,0,0,0,0v2.1L86.5,40.4
			L86.5,40.4z"/>
	</g>
	<g id="slogan_text" transform="translate(54.9922252812116, 35.282496261596656)" xmlns:name="sloganText_mainfill">
		<path class="st1" d="M65.5,1.3l0.2,0.8h0L66,1.3h0.1l0.3,0.8h0l0.2-0.8h0.1l-0.3,0.9h-0.1l-0.3-0.8h0l-0.3,0.8h-0.1l-0.3-0.9
			C65.4,1.3,65.5,1.3,65.5,1.3z M67,1.3h0.1v0.9H67V1.3z M67,0.9C67.1,0.9,67.1,0.9,67,0.9C67.1,0.9,67.1,0.9,67,0.9
			C67.1,1,67.1,1,67.1,1c0,0,0,0-0.1,0c0,0,0,0-0.1,0S66.9,1,67,0.9C66.9,0.9,66.9,0.9,67,0.9C67,0.9,67,0.9,67,0.9z M67.8,1.3
			C67.9,1.3,67.9,1.3,67.8,1.3l0.1,0.1c0,0,0,0,0,0c-0.1,0-0.2,0-0.2,0.1c-0.1,0.1-0.1,0.1-0.1,0.2v0.5h-0.1V1.6c0,0,0-0.1,0-0.2
			h0.1c0,0.1,0,0.1,0,0.2C67.6,1.4,67.7,1.3,67.8,1.3L67.8,1.3z M68.8,1.7c0-0.1,0-0.2-0.1-0.2c-0.1-0.1-0.1-0.1-0.2-0.1
			c-0.1,0-0.2,0-0.2,0.1c-0.1,0.1-0.1,0.1-0.1,0.2L68.8,1.7L68.8,1.7z M68.5,1.3c0.1,0,0.2,0,0.3,0.1c0.1,0.1,0.1,0.2,0.1,0.3v0.1
			h-0.8c0,0.1,0,0.2,0.1,0.3c0.1,0.1,0.1,0.1,0.2,0.1c0.1,0,0.1,0,0.2,0c0.1,0,0.1-0.1,0.1-0.1l0.1,0.1c-0.1,0.1-0.2,0.2-0.4,0.2
			c-0.1,0-0.3,0-0.3-0.1S68,1.9,68,1.8c0-0.1,0-0.3,0.1-0.3S68.4,1.3,68.5,1.3L68.5,1.3z M69.2,0.7h0.1v1.5h-0.1V0.7z M70.4,1.7
			c0-0.1,0-0.2-0.1-0.2c-0.1-0.1-0.1-0.1-0.2-0.1c-0.1,0-0.2,0-0.2,0.1c-0.1,0.1-0.1,0.1-0.1,0.2L70.4,1.7L70.4,1.7z M70.1,1.3
			c0.1,0,0.2,0,0.3,0.1c0.1,0.1,0.1,0.2,0.1,0.3v0.1h-0.8c0,0.1,0,0.2,0.1,0.3c0.1,0.1,0.1,0.1,0.2,0.1c0.1,0,0.1,0,0.2,0
			c0.1,0,0.1-0.1,0.1-0.1l0.1,0.1c-0.1,0.1-0.2,0.2-0.4,0.2c-0.1,0-0.3,0-0.3-0.1c-0.1-0.1-0.1-0.2-0.1-0.3c0-0.1,0-0.3,0.1-0.3
			S70,1.3,70.1,1.3L70.1,1.3z M71.1,1.3c0.2,0,0.3,0.1,0.3,0.2l-0.1,0.1c0-0.1-0.1-0.1-0.2-0.1c-0.1,0-0.1,0-0.1,0
			c0,0-0.1,0.1-0.1,0.1s0,0.1,0.1,0.1c0,0,0.1,0,0.2,0.1c0.1,0,0.2,0.1,0.3,0.1c0,0,0.1,0.1,0.1,0.2c0,0.1,0,0.2-0.1,0.2
			c-0.1,0.1-0.1,0.1-0.2,0.1c-0.2,0-0.3-0.1-0.4-0.2L70.8,2c0,0,0.1,0.1,0.1,0.1c0.1,0,0.1,0,0.2,0c0.1,0,0.1,0,0.2-0.1
			c0,0,0.1-0.1,0.1-0.1c0,0,0-0.1,0-0.1c0,0-0.1-0.1-0.2-0.1c-0.1,0-0.2,0-0.2-0.1c0,0-0.1-0.1-0.1-0.2c0-0.1,0-0.1,0.1-0.2
			S71,1.3,71.1,1.3z M71.9,1.3c0.2,0,0.3,0.1,0.3,0.2l-0.1,0.1c0-0.1-0.1-0.1-0.2-0.1c-0.1,0-0.1,0-0.1,0c0,0-0.1,0.1-0.1,0.1
			s0,0.1,0.1,0.1c0,0,0.1,0,0.2,0.1c0.1,0,0.2,0.1,0.3,0.1c0,0,0.1,0.1,0.1,0.2c0,0.1,0,0.2-0.1,0.2c-0.1,0.1-0.1,0.1-0.2,0.1
			c-0.2,0-0.3-0.1-0.4-0.2L71.7,2c0,0,0.1,0.1,0.1,0.1c0.1,0,0.1,0,0.2,0c0.1,0,0.1,0,0.2-0.1s0.1-0.1,0.1-0.1c0,0,0-0.1,0-0.1
			c0,0-0.1-0.1-0.2-0.1c-0.1,0-0.2,0-0.2-0.1c0,0-0.1-0.1-0.1-0.2c0-0.1,0-0.1,0.1-0.2S71.8,1.3,71.9,1.3L71.9,1.3z M73.1,1.8
			c0,0.1,0,0.2,0.1,0.3c0.1,0.1,0.2,0.1,0.3,0.1c0.1,0,0.2,0,0.3-0.1c0.1-0.1,0.1-0.2,0.1-0.3c0-0.1,0-0.2-0.1-0.3
			c-0.1-0.1-0.2-0.1-0.3-0.1c-0.1,0-0.2,0-0.3,0.1C73.1,1.6,73.1,1.7,73.1,1.8L73.1,1.8z M73.8,0.7H74v1.5h-0.1V2.1h0
			c0,0.1-0.1,0.1-0.2,0.1c-0.1,0-0.1,0-0.2,0c-0.1,0-0.3,0-0.3-0.1C73,2.1,73,1.9,73,1.8c0-0.1,0-0.3,0.1-0.3
			c0.1-0.1,0.2-0.1,0.4-0.1c0.1,0,0.2,0,0.2,0s0.1,0.1,0.2,0.1h0V0.7L73.8,0.7z M75,1.7c0-0.1,0-0.2-0.1-0.2
			c-0.1-0.1-0.1-0.1-0.2-0.1c-0.1,0-0.2,0-0.2,0.1c-0.1,0.1-0.1,0.1-0.1,0.2L75,1.7L75,1.7z M74.7,1.3c0.1,0,0.2,0,0.3,0.1
			c0.1,0.1,0.1,0.2,0.1,0.3v0.1h-0.8c0,0.1,0,0.2,0.1,0.3c0.1,0.1,0.1,0.1,0.2,0.1c0.1,0,0.1,0,0.2,0c0.1,0,0.1-0.1,0.1-0.1l0.1,0.1
			c-0.1,0.1-0.2,0.2-0.4,0.2c-0.1,0-0.3,0-0.3-0.1c-0.1-0.1-0.1-0.2-0.1-0.3c0-0.1,0-0.3,0.1-0.3S74.5,1.3,74.7,1.3L74.7,1.3z
			 M75.4,0.7h0.1v1.5h-0.1V0.7z M75.9,1.3H76v0.9h-0.1V1.3z M75.9,0.9C75.9,0.9,76,0.9,75.9,0.9C76,0.9,76,0.9,75.9,0.9
			C76,1,76,1,76,1c0,0,0,0-0.1,0c0,0,0,0-0.1,0S75.8,1,75.9,0.9C75.8,0.9,75.8,0.9,75.9,0.9C75.9,0.9,75.9,0.9,75.9,0.9z M76.3,1.3
			l0.3,0.8l0.3-0.8h0.1l-0.4,0.9h-0.1l-0.4-0.9H76.3L76.3,1.3z M78,1.7c0-0.1,0-0.2-0.1-0.2c-0.1-0.1-0.1-0.1-0.2-0.1
			c-0.1,0-0.2,0-0.2,0.1c-0.1,0.1-0.1,0.1-0.1,0.2L78,1.7L78,1.7z M77.7,1.3c0.1,0,0.2,0,0.3,0.1c0.1,0.1,0.1,0.2,0.1,0.3v0.1h-0.8
			c0,0.1,0,0.2,0.1,0.3c0.1,0.1,0.1,0.1,0.2,0.1c0.1,0,0.1,0,0.2,0c0.1,0,0.1-0.1,0.1-0.1l0.1,0.1c-0.1,0.1-0.2,0.2-0.4,0.2
			c-0.1,0-0.3,0-0.3-0.1c-0.1-0.1-0.1-0.2-0.1-0.3c0-0.1,0-0.3,0.1-0.3S77.5,1.3,77.7,1.3L77.7,1.3z M78.8,1.3
			C78.8,1.3,78.8,1.3,78.8,1.3l0.1,0.1c0,0,0,0,0,0c-0.1,0-0.2,0-0.2,0.1c-0.1,0.1-0.1,0.1-0.1,0.2v0.5h-0.1V1.6c0,0,0-0.1,0-0.2
			h0.1c0,0.1,0,0.1,0,0.2C78.5,1.4,78.6,1.3,78.8,1.3L78.8,1.3z M79.7,1.7c0-0.1,0-0.2-0.1-0.2c-0.1-0.1-0.1-0.1-0.2-0.1
			c-0.1,0-0.2,0-0.2,0.1c-0.1,0.1-0.1,0.1-0.1,0.2L79.7,1.7L79.7,1.7z M79.4,1.3c0.1,0,0.2,0,0.3,0.1c0.1,0.1,0.1,0.2,0.1,0.3v0.1
			h-0.8c0,0.1,0,0.2,0.1,0.3c0.1,0.1,0.1,0.1,0.2,0.1c0.1,0,0.1,0,0.2,0c0.1,0,0.1-0.1,0.1-0.1l0.1,0.1c-0.1,0.1-0.2,0.2-0.4,0.2
			c-0.1,0-0.3,0-0.3-0.1C79,2.1,79,1.9,79,1.8c0-0.1,0-0.3,0.1-0.3S79.3,1.3,79.4,1.3L79.4,1.3z M80.2,1.8c0,0.1,0,0.2,0.1,0.3
			c0.1,0.1,0.2,0.1,0.3,0.1c0.1,0,0.2,0,0.3-0.1C80.9,2,81,1.9,81,1.8c0-0.1,0-0.2-0.1-0.3s-0.2-0.1-0.3-0.1c-0.1,0-0.2,0-0.3,0.1
			C80.2,1.6,80.2,1.7,80.2,1.8L80.2,1.8z M80.9,0.7h0.1v1.5h-0.1V2.1h0c0,0.1-0.1,0.1-0.2,0.1c-0.1,0-0.1,0-0.2,0
			c-0.1,0-0.3,0-0.3-0.1c-0.1-0.1-0.1-0.2-0.1-0.4c0-0.1,0-0.3,0.1-0.3c0.1-0.1,0.2-0.1,0.4-0.1c0.1,0,0.2,0,0.2,0s0.1,0.1,0.2,0.1
			h0V0.7L80.9,0.7z"/>
	</g>
	<g>
		<path class="st2" d="M185.1,45.2h-5c-0.1,0-0.2,0.1-0.2,0.2v9.1c0,0.1,0.1,0.2,0.2,0.2h5c0.1,0,0.2-0.1,0.2-0.2v-9.1
			C185.3,45.3,185.2,45.2,185.1,45.2z M182,45.6h1.1c0,0,0.1,0,0.1,0.1c0,0,0,0-0.1,0H182C182,45.7,181.9,45.6,182,45.6
			C181.9,45.6,182,45.6,182,45.6z M181.5,45.5c0.1,0,0.1,0.1,0.1,0.1s-0.1,0.1-0.1,0.1c-0.1,0-0.1-0.1-0.1-0.1
			S181.4,45.5,181.5,45.5z M182.6,54.6c-0.2,0-0.3-0.1-0.3-0.3s0.1-0.3,0.3-0.3c0.2,0,0.3,0.1,0.3,0.3S182.7,54.6,182.6,54.6z
			 M185,53.9h-4.9v-7.8h4.9V53.9z"/>
		<circle class="st2" cx="182.6" cy="54.3" r="0.2"/>
		<path class="st2" d="M182.7,46.9c-0.1,0.1,0,0.2,0,0.2l1.2,1h-3.2c-0.1,0-0.2,0.1-0.2,0.2s0.1,0.2,0.2,0.2h3.2l-1.2,1
			c-0.1,0.1-0.1,0.2,0,0.2c0.1,0.1,0.2,0.1,0.2,0l1.6-1.3c0,0,0.1-0.1,0.1-0.1s0-0.1-0.1-0.1l-1.6-1.3
			C182.8,46.8,182.7,46.8,182.7,46.9z"/>
		<path class="st2" d="M182.4,53c0.1-0.1,0-0.2,0-0.2l-1.2-1h3.2c0.1,0,0.2-0.1,0.2-0.2s-0.1-0.2-0.2-0.2h-3.2l1.2-1
			c0.1-0.1,0.1-0.2,0-0.2s-0.2-0.1-0.2,0l-1.6,1.3c0,0-0.1,0.1-0.1,0.1s0,0.1,0.1,0.1l1.6,1.3C182.2,53.1,182.3,53.1,182.4,53z"/>
	</g>
</g>
</svg>
