<?xml version="1.0" encoding="utf-8"?>
<!-- Generator: Adobe Illustrator 20.1.0, SVG Export Plug-In . SVG Version: 6.00 Build 0)  -->
<svg version="1.1" id="Layer_1" xmlns="http://www.w3.org/2000/svg" xmlns:xlink="http://www.w3.org/1999/xlink" x="0px" y="0px"
	 viewBox="0 0 3235 1060.7" style="enable-background:new 0 0 3235 1060.7;" xml:space="preserve">
<style type="text/css">
	.st0{fill:#222222;}
	.st1{fill:#575757;}
	.st2{fill:#0A9EFC;}
</style>
<g id="SvgjsG1013" transform="translate(-16.849475807343396,-1.4651718093342083) scale(0.7325859046671042)" xmlns:name="symbol_mainfill">
	<g id="SvgjsG1011" transform="translate(53.807224623176324,-5.60250396728518)" xmlns:name="mainText_mainfill">
		<path class="st0" d="M69.3,39.7c0.3,0.1,0.5,0.1,0.5,0.5c0,0.3-0.2,0.5-0.5,0.5h-0.1c-0.3,0-0.5-0.2-0.5-0.4c0,0,0,0,0,0h0.1
			c0,0,0,0,0,0c0,0.2,0.1,0.3,0.3,0.3h0.1c0.2,0,0.3-0.1,0.3-0.3c0-0.2-0.2-0.3-0.3-0.3l-0.1,0c-0.3-0.1-0.5-0.1-0.5-0.4
			c0-0.3,0.2-0.4,0.5-0.4h0.1c0.3,0,0.4,0.2,0.5,0.4c0,0,0,0,0,0h-0.1c0,0,0,0,0,0c0-0.2-0.1-0.3-0.3-0.3h-0.1
			c-0.2,0-0.3,0.1-0.3,0.3C68.9,39.7,69.1,39.7,69.3,39.7L69.3,39.7z M71.8,39C71.9,39,71.9,39,71.8,39l-0.4,1.6c0,0,0,0,0,0h-0.1
			c0,0,0,0,0,0l-0.4-1.3l-0.4,1.3c0,0,0,0,0,0h-0.1c0,0,0,0,0,0l-0.4-1.5c0,0,0,0,0,0h0.1c0,0,0,0,0,0l0.3,1.3l0.4-1.3c0,0,0,0,0,0
			h0.1c0,0,0,0,0,0l0.4,1.3l0.3-1.3C71.7,39,71.7,39,71.8,39L71.8,39L71.8,39z M72,39.1C72,39,72,39,72,39.1l0.1,0c0,0,0,0,0,0v1.5
			c0,0,0,0,0,0h-0.1c0,0,0,0,0,0V39.1L72,39.1z M73.3,39C73.3,39,73.3,39,73.3,39l0,0.1c0,0,0,0,0,0h-0.4v1.4c0,0,0,0,0,0h-0.1
			c0,0,0,0,0,0v-1.4h-0.4c0,0,0,0,0,0v-0.1c0,0,0,0,0,0h0.5H73.3L73.3,39z M74.5,40.2C74.5,40.2,74.6,40.2,74.5,40.2
			c0,0.4-0.1,0.5-0.4,0.5h-0.2c-0.3,0-0.5-0.2-0.5-0.5v-0.7c0-0.3,0.2-0.5,0.5-0.5h0.2c0.3,0,0.5,0.2,0.5,0.5c0,0,0,0,0,0h-0.1
			c0,0,0,0,0,0c0-0.2-0.1-0.3-0.3-0.3h-0.2c-0.2,0-0.3,0.1-0.3,0.3v0.7c0,0.2,0.1,0.3,0.3,0.3h0.2c0.2,0,0.3-0.1,0.3-0.3
			C74.4,40.2,74.4,40.2,74.5,40.2L74.5,40.2z M75.8,39C75.8,39,75.8,39,75.8,39l0,1.6c0,0,0,0,0,0h-0.1c0,0,0,0,0,0v-0.7h-0.7v0.7
			c0,0,0,0,0,0h-0.1c0,0,0,0,0,0v-1.5c0,0,0,0,0,0h0.1c0,0,0,0,0,0v0.7h0.7v-0.7C75.6,39,75.6,39,75.8,39L75.8,39L75.8,39z M77.7,39
			C77.7,39,77.7,39,77.7,39l0,1.6c0,0,0,0,0,0h-0.2c0,0,0,0,0,0l-0.7-1.4v1.4c0,0,0,0,0,0h-0.1c0,0,0,0,0,0v-1.5c0,0,0,0,0,0h0.2
			c0,0,0,0,0,0l0.7,1.4v-1.4C77.5,39,77.5,39,77.7,39L77.7,39L77.7,39z M79.6,40.2C79.6,40.2,79.6,40.2,79.6,40.2
			c0,0.4-0.1,0.5-0.4,0.5H79c-0.3,0-0.5-0.2-0.5-0.5v-0.7c0-0.3,0.2-0.5,0.5-0.5h0.2c0.3,0,0.5,0.2,0.5,0.5c0,0,0,0,0,0h-0.1
			c0,0,0,0,0,0c0-0.2-0.1-0.3-0.3-0.3H79c-0.2,0-0.3,0.1-0.3,0.3v0.7c0,0.2,0.1,0.3,0.3,0.3h0.2c0.2,0,0.3-0.1,0.3-0.3
			C79.4,40.2,79.5,40.2,79.6,40.2L79.6,40.2z M80.7,39.2h-0.7v0.6h0.6c0,0,0,0,0,0v0.1c0,0,0,0,0,0h-0.6v0.6h0.7c0,0,0,0,0,0v0.1
			c0,0,0,0,0,0h-0.9c0,0,0,0,0,0v-1.5c0,0,0,0,0,0h0.9c0,0,0,0,0,0L80.7,39.2C80.7,39.2,80.7,39.2,80.7,39.2L80.7,39.2z M81.7,40.5
			C81.7,40.5,81.7,40.5,81.7,40.5l0,0.1c0,0,0,0,0,0h-0.8c0,0,0,0,0,0v-1.5c0,0,0,0,0,0H81c0,0,0,0,0,0v1.4H81.7L81.7,40.5z
			 M82.7,40.5C82.8,40.5,82.8,40.5,82.7,40.5l0,0.1c0,0,0,0,0,0h-0.8c0,0,0,0,0,0v-1.5c0,0,0,0,0,0H82c0,0,0,0,0,0v1.4H82.7
			L82.7,40.5z"/>
	</g>
	<g id="SvgjsG1012" transform="translate(54.9922252812116,35.282496261596656)" xmlns:name="sloganText_mainfill">
		<path class="st1" d="M67.7,0.9l0.2,0.5h0L68,0.9h0.1l0.2,0.5h0l0.2-0.5h0.1l-0.2,0.6h-0.1L68.1,1h0l-0.2,0.5h-0.1L67.7,0.9
			C67.6,0.9,67.7,0.9,67.7,0.9z M68.6,0.9L68.6,0.9l0.1,0.6h-0.1V0.9z M68.6,0.6C68.6,0.6,68.6,0.6,68.6,0.6
			C68.7,0.6,68.7,0.6,68.6,0.6c0.1,0.1,0.1,0.1,0,0.1c0,0,0,0,0,0c0,0,0,0,0,0C68.5,0.7,68.5,0.7,68.6,0.6
			C68.5,0.6,68.5,0.6,68.6,0.6C68.6,0.6,68.6,0.6,68.6,0.6z M69,0.9C69.1,0.9,69.1,0.9,69,0.9L69,0.9C69.1,1,69.1,1,69,0.9
			C69,1,68.9,1,68.9,1c0,0-0.1,0.1-0.1,0.2v0.4h-0.1V1.1c0,0,0-0.1,0-0.2h0.1c0,0.1,0,0.1,0,0.1C68.9,0.9,69,0.9,69,0.9L69,0.9z
			 M69.6,1.2c0-0.1,0-0.1-0.1-0.1c0,0-0.1-0.1-0.2-0.1c-0.1,0-0.1,0-0.2,0.1c0,0-0.1,0.1-0.1,0.1L69.6,1.2L69.6,1.2z M69.4,0.9
			c0.1,0,0.2,0,0.2,0.1c0.1,0.1,0.1,0.1,0.1,0.2v0.1h-0.5c0,0.1,0,0.1,0.1,0.2c0,0,0.1,0.1,0.2,0.1c0,0,0.1,0,0.1,0
			c0,0,0.1,0,0.1-0.1l0.1,0.1c-0.1,0.1-0.2,0.1-0.3,0.1c-0.1,0-0.2,0-0.2-0.1c-0.1-0.1-0.1-0.1-0.1-0.2c0-0.1,0-0.2,0.1-0.2
			S69.3,0.9,69.4,0.9L69.4,0.9z M69.8,0.5L69.8,0.5l0.1,1.1h-0.1V0.5L69.8,0.5z M70.5,1.2c0-0.1,0-0.1-0.1-0.1c0,0-0.1-0.1-0.2-0.1
			c-0.1,0-0.1,0-0.2,0.1c0,0-0.1,0.1-0.1,0.1L70.5,1.2L70.5,1.2z M70.3,0.9c0.1,0,0.2,0,0.2,0.1c0.1,0.1,0.1,0.1,0.1,0.2v0.1H70
			c0,0.1,0,0.1,0.1,0.2c0,0,0.1,0.1,0.2,0.1c0,0,0.1,0,0.1,0c0,0,0.1,0,0.1-0.1l0.1,0.1c-0.1,0.1-0.2,0.1-0.3,0.1
			c-0.1,0-0.2,0-0.2-0.1c-0.1-0.1-0.1-0.1-0.1-0.2C69.9,1.1,70,1,70,1S70.2,0.9,70.3,0.9L70.3,0.9z M70.8,0.9c0.1,0,0.2,0,0.2,0.1
			L71,1C70.9,1,70.9,0.9,70.8,0.9c0,0.1-0.1,0.1-0.1,0.1s0,0,0,0.1c0,0,0,0.1,0,0.1c0,0,0.1,0,0.1,0c0.1,0,0.1,0,0.2,0.1
			c0,0,0,0.1,0,0.1c0,0.1,0,0.1-0.1,0.1c0,0-0.1,0.1-0.2,0.1c-0.1,0-0.2,0-0.3-0.1l0.1-0.1c0,0,0,0.1,0.1,0.1c0,0,0.1,0,0.1,0
			c0,0,0.1,0,0.1,0c0,0,0-0.1,0-0.1c0,0,0-0.1,0-0.1c0,0-0.1,0-0.1-0.1c-0.1,0-0.1,0-0.1-0.1s-0.1-0.1-0.1-0.1c0-0.1,0-0.1,0.1-0.1
			C70.7,0.9,70.8,0.9,70.8,0.9z M71.3,0.9c0.1,0,0.2,0,0.2,0.1l-0.1,0C71.4,1,71.4,0.9,71.3,0.9c0,0.1-0.1,0.1-0.1,0.1s0,0,0,0.1
			c0,0,0,0.1,0,0.1c0,0,0.1,0,0.1,0c0.1,0,0.1,0,0.2,0.1c0,0,0,0.1,0,0.1c0,0.1,0,0.1-0.1,0.1c0,0-0.1,0.1-0.2,0.1
			c-0.1,0-0.2,0-0.3-0.1l0.1-0.1c0,0,0,0.1,0.1,0.1c0,0,0.1,0,0.1,0c0,0,0.1,0,0.1,0c0,0,0-0.1,0-0.1c0,0,0-0.1,0-0.1
			c0,0-0.1,0-0.1-0.1c-0.1,0-0.1,0-0.1-0.1s-0.1-0.1-0.1-0.1c0-0.1,0-0.1,0.1-0.1C71.2,0.9,71.2,0.9,71.3,0.9z M72.3,1.2
			c0-0.1,0-0.1-0.1-0.1s-0.1-0.1-0.2-0.1C72.1,0.9,72,1,72,1c0,0-0.1,0.1-0.1,0.1L72.3,1.2L72.3,1.2z M72.1,0.9c0.1,0,0.2,0,0.2,0.1
			c0.1,0.1,0.1,0.1,0.1,0.2v0.1h-0.5c0,0.1,0,0.1,0.1,0.2c0,0,0.1,0.1,0.2,0.1c0,0,0.1,0,0.1,0c0,0,0.1,0,0.1-0.1l0.1,0.1
			c-0.1,0.1-0.2,0.1-0.3,0.1c-0.1,0-0.2,0-0.2-0.1c-0.1-0.1-0.1-0.1-0.1-0.2c0-0.1,0-0.2,0.1-0.2S72,0.9,72.1,0.9L72.1,0.9z
			 M72.5,0.9l0.2,0.6l0.2-0.6H73l-0.3,0.6h-0.1L72.5,0.9L72.5,0.9L72.5,0.9z M73.1,1.2c0,0.1,0,0.1,0.1,0.2c0,0,0.1,0.1,0.2,0.1
			c0.1,0,0.1,0,0.2-0.1c0-0.1,0.1-0.1,0.1-0.2c0-0.1,0-0.1-0.1-0.2c0-0.1-0.1-0.1-0.2-0.1c-0.1,0-0.1,0-0.2,0.1
			C73.1,1.1,73.1,1.1,73.1,1.2L73.1,1.2z M73.3,0.9c0.1,0,0.2,0,0.2,0.1s0.1,0.1,0.1,0.2c0,0.1,0,0.2-0.1,0.2
			c-0.1,0.1-0.1,0.1-0.2,0.1c-0.1,0-0.2,0-0.2-0.1C73,1.4,73,1.3,73,1.2C73,1.1,73,1,73.1,1S73.2,0.9,73.3,0.9L73.3,0.9z M73.8,0.5
			L73.8,0.5l0.1,1.1h-0.1V0.5z M74,0.9l0.2,0.6l0.2-0.6h0.1l-0.3,0.6h-0.1L74,0.9L74,0.9L74,0.9z M75,1.2C75,1.1,75,1,74.9,1
			c0,0-0.1-0.1-0.2-0.1c-0.1,0-0.1,0-0.2,0.1s-0.1,0.1-0.1,0.1L75,1.2L75,1.2z M74.8,0.9c0.1,0,0.2,0,0.2,0.1
			C75,1,75.1,1.1,75.1,1.2v0.1h-0.5c0,0.1,0,0.1,0.1,0.2c0,0,0.1,0.1,0.2,0.1c0,0,0.1,0,0.1,0c0,0,0.1,0,0.1-0.1l0.1,0.1
			c-0.1,0.1-0.2,0.1-0.3,0.1c-0.1,0-0.2,0-0.2-0.1c-0.1-0.1-0.1-0.1-0.1-0.2c0-0.1,0-0.2,0.1-0.2S74.7,0.9,74.8,0.9L74.8,0.9z
			 M75.2,1.2c0,0.1,0,0.1,0.1,0.2c0,0,0.1,0.1,0.2,0.1c0.1,0,0.1,0,0.2-0.1s0.1-0.1,0.1-0.2c0-0.1,0-0.1-0.1-0.2
			c-0.1-0.1-0.1-0.1-0.2-0.1c-0.1,0-0.1,0-0.2,0.1C75.2,1.1,75.2,1.1,75.2,1.2L75.2,1.2z M75.7,0.5L75.7,0.5l0.1,1.1h-0.1V1.4h0
			c0,0-0.1,0.1-0.1,0.1c0,0-0.1,0-0.2,0c-0.1,0-0.2,0-0.2-0.1s-0.1-0.1-0.1-0.2c0-0.1,0-0.2,0.1-0.2c0.1-0.1,0.1-0.1,0.2-0.1
			c0.1,0,0.1,0,0.2,0c0,0,0.1,0.1,0.1,0.1h0V0.5L75.7,0.5z"/>
	</g>
	<g>
		<path class="st2" d="M188.7,46.6h-3.5c-0.1,0-0.2,0.1-0.2,0.2v6.4c0,0.1,0.1,0.2,0.2,0.2h3.5c0.1,0,0.2-0.1,0.2-0.2v-6.4
			C188.9,46.7,188.8,46.6,188.7,46.6z M186.6,46.9h0.8c0,0,0,0,0,0s0,0,0,0L186.6,46.9C186.5,46.9,186.5,46.9,186.6,46.9
			C186.5,46.9,186.6,46.9,186.6,46.9z M186.2,46.8C186.2,46.8,186.3,46.9,186.2,46.8c0.1,0.1,0,0.2,0,0.2
			C186.1,47,186.1,47,186.2,46.8C186.1,46.9,186.1,46.8,186.2,46.8z M187,53.2c-0.1,0-0.2-0.1-0.2-0.2s0.1-0.2,0.2-0.2
			c0.1,0,0.2,0.1,0.2,0.2S187.1,53.2,187,53.2z M188.7,52.7h-3.4v-5.5h3.4V52.7z"/>
		<circle class="st2" cx="187" cy="53" r="0.2"/>
		<path class="st2" d="M187,47.8c0,0,0,0.1,0,0.2l0.9,0.7h-2.3c-0.1,0-0.1,0.1-0.1,0.1s0.1,0.1,0.1,0.1h2.3l-0.9,0.7
			c0,0-0.1,0.1,0,0.2c0,0,0.1,0,0.2,0l1.1-0.9c0,0,0-0.1,0-0.1s0-0.1,0-0.1l-1.1-0.9C187.1,47.8,187.1,47.8,187,47.8z"/>
		<path class="st2" d="M186.8,52.1c0,0,0-0.1,0-0.2l-0.9-0.7h2.3c0.1,0,0.1-0.1,0.1-0.1s-0.1-0.1-0.1-0.1H186l0.9-0.7
			c0,0,0.1-0.1,0-0.2c0,0-0.1,0-0.2,0l-1.1,0.9c0,0,0,0.1,0,0.1s0,0.1,0,0.1l1.1,0.9C186.7,52.1,186.8,52.1,186.8,52.1z"/>
	</g>
</g>
</svg>
